# xmcd CD database file
#
# Track frame offsets:
#	150
#	10926
#	20600
#	30444
#	40390
#	50637
#	61587
#	70834
#	82275
#	94530
#	102263
#	113102
#	123933
#	134381
#	142014
#	150677
#	159879
#	171607
#	182411
#	194532
#
# Disc length: 2724 seconds
#
# Revision: 3
# Processed by: cddbd v1.5.2PL0 Copyright (c) Steve Scherf et al.
# Submitted via: CDex 1.84
#
DISCID=0f0aa214
DTITLE=Various Artist - The Core of Rockabilly Vol. 3
DYEAR=1999
DGENRE=Country
TTITLE0=Onie Wheeler - Jump Right Out Of This Jukebox
TTITLE1=Warren Smith - Uranium Rock
TTITLE2=Hayden Thompson - Love My Baby
TTITLE3=Jerry Lee Lewis - Milkshake Mademoiselle
TTITLE4=Roy Orbison - Domino
TTITLE5=Ray Smith - Right Behind You Babyu
TTITLE6=Conway Twitty - Give Me Some Lovin'
TTITLE7=Billie Riley - Red Hot
TTITLE8=Jerry Lee Lewis - Breathless
TTITLE9=Carl Perkins - Glad All Over
TTITLE10=Warren Smith - Sweet, Sweet Girl
TTITLE11=Ray Smith - You Made A Hit
TTITLE12=Ray Harris - Come On Little Mama
TTITLE13=Junior Thompson - Rabbit Action
TTITLE14=Jerry Lee Lewis - Wild One (Real Wild Child)
TTITLE15=Conway Twitty - I Need Your Lovin' Kiss
TTITLE16=Andy Anderson - Tough Tough Tough
TTITLE17=Jack Earls - My Gal Mary Ann
TTITLE18=Sleepy La Beef - Big Boss Man
TTITLE19=Charlie Rich - Lonely Weekends
EXTD=YEAR: 1999
EXTT0=
EXTT1=
EXTT2=
EXTT3=
EXTT4=
EXTT5=
EXTT6=
EXTT7=
EXTT8=
EXTT9=
EXTT10=
EXTT11=
EXTT12=
EXTT13=
EXTT14=
EXTT15=
EXTT16=
EXTT17=
EXTT18=
EXTT19=
PLAYORDER=
